<svg width="554" height="94" viewBox="0 0 554 94" fill="none" xmlns="http://www.w3.org/2000/svg">
<path d="M52.608 57.184C49.3653 58.5493 46.08 59.4453 42.752 59.872C39.424 60.2987 36.096 60.64 32.768 60.896C26.88 61.3227 22.272 62.6453 18.944 64.864C15.7013 67.0827 14.08 70.4533 14.08 74.976C14.08 77.024 14.464 78.816 15.232 80.352C16.0853 81.8027 17.152 83.04 18.432 84.064C19.7973 85.0027 21.3333 85.728 23.04 86.24C24.832 86.6667 26.624 86.88 28.416 86.88C31.488 86.88 34.4747 86.496 37.376 85.728C40.2773 84.96 42.8373 83.808 45.056 82.272C47.36 80.6507 49.1947 78.6453 50.56 76.256C51.9253 73.7813 52.608 70.88 52.608 67.552V57.184ZM39.68 53.344C41.1307 53.1733 42.8373 52.9173 44.8 52.576C46.848 52.2347 48.512 51.7653 49.792 51.168C51.072 50.5707 51.84 49.5893 52.096 48.224C52.4373 46.7733 52.608 45.4507 52.608 44.256C52.608 40.3307 51.328 37.1307 48.768 34.656C46.2933 32.096 42.0693 30.816 36.096 30.816C33.4507 30.816 31.0187 31.072 28.8 31.584C26.5813 32.0107 24.6187 32.8213 22.912 34.016C21.2907 35.1253 19.9253 36.6613 18.816 38.624C17.792 40.5013 17.1093 42.8907 16.768 45.792H8.96C9.216 41.8667 10.112 38.5387 11.648 35.808C13.184 32.992 15.1467 30.7307 17.536 29.024C20.0107 27.232 22.8267 25.952 25.984 25.184C29.2267 24.3307 32.64 23.904 36.224 23.904C39.552 23.904 42.6667 24.288 45.568 25.056C48.5547 25.7387 51.1147 26.8907 53.248 28.512C55.4667 30.048 57.1733 32.1387 58.368 34.784C59.648 37.4293 60.288 40.672 60.288 44.512V80.608C60.288 83.5947 60.8 85.5147 61.824 86.368C62.9333 87.136 65.1093 86.9227 68.352 85.728V91.744C67.7547 91.9147 66.8587 92.1707 65.664 92.512C64.5547 92.8533 63.4453 93.024 62.336 93.024C61.1413 93.024 59.9893 92.896 58.88 92.64C57.6 92.4693 56.576 92.0853 55.808 91.488C55.04 90.8053 54.4 90.0373 53.888 89.184C53.4613 88.2453 53.1627 87.264 52.992 86.24C52.8213 85.1307 52.736 83.9787 52.736 82.784C49.4933 86.368 45.7813 89.0987 41.6 90.976C37.4187 92.8533 32.896 93.792 28.032 93.792C25.1307 93.792 22.3147 93.408 19.584 92.64C16.9387 91.872 14.592 90.6773 12.544 89.056C10.496 87.4347 8.87467 85.472 7.68 83.168C6.48533 80.7787 5.888 77.9627 5.888 74.72C5.888 63.456 13.6107 56.8 29.056 54.752L39.68 53.344ZM84.821 71.264C86.0157 76.9813 88.149 81.0347 91.221 83.424C94.3783 85.728 98.8583 86.88 104.661 86.88C107.477 86.88 109.909 86.5387 111.957 85.856C114.005 85.1733 115.669 84.2773 116.949 83.168C118.314 81.9733 119.338 80.6507 120.021 79.2C120.704 77.7493 121.045 76.2133 121.045 74.592C121.045 71.3493 119.978 68.96 117.845 67.424C115.797 65.8027 113.194 64.5653 110.037 63.712C106.88 62.7733 103.466 62.0053 99.797 61.408C96.1277 60.7253 92.7143 59.744 89.557 58.464C86.3997 57.184 83.7543 55.3493 81.621 52.96C79.573 50.5707 78.549 47.2 78.549 42.848C78.549 37.3013 80.5543 32.7787 84.565 29.28C88.661 25.696 94.421 23.904 101.845 23.904C109.013 23.904 114.816 25.5253 119.253 28.768C123.776 31.9253 126.506 37.2587 127.445 44.768H119.637C118.954 39.648 116.992 36.064 113.749 34.016C110.592 31.8827 106.581 30.816 101.717 30.816C96.853 30.816 93.141 31.8827 90.581 34.016C88.021 36.064 86.741 38.7947 86.741 42.208C86.741 45.1947 87.765 47.4987 89.813 49.12C91.9463 50.656 94.5917 51.936 97.749 52.96C100.906 53.8987 104.32 54.752 107.989 55.52C111.658 56.288 115.072 57.3973 118.229 58.848C121.386 60.2133 123.989 62.0907 126.037 64.48C128.17 66.8693 129.237 70.1973 129.237 74.464C129.237 77.6213 128.554 80.4373 127.189 82.912C125.824 85.3013 123.946 87.3067 121.557 88.928C119.168 90.5493 116.309 91.744 112.981 92.512C109.738 93.3653 106.154 93.792 102.229 93.792C98.3037 93.792 94.805 93.1947 91.733 92C88.7463 90.8907 86.1863 89.312 84.053 87.264C81.9197 85.216 80.2557 82.8267 79.061 80.096C77.8663 77.3653 77.1837 74.4213 77.013 71.264H84.821ZM167.637 92.256C166.698 92.4267 165.461 92.7253 163.925 93.152C162.389 93.5787 160.682 93.792 158.805 93.792C154.965 93.792 152.021 92.8533 149.973 90.976C148.01 89.0133 147.029 85.5573 147.029 80.608V32.096H137.685V25.696H147.029V7.26399H154.709V25.696H167.125V32.096H154.709V77.536C154.709 79.1573 154.752 80.5653 154.837 81.76C154.922 82.9547 155.178 83.936 155.605 84.704C156.032 85.472 156.672 86.0267 157.525 86.368C158.464 86.7093 159.744 86.88 161.365 86.88C162.389 86.88 163.413 86.7947 164.437 86.624C165.546 86.4533 166.613 86.24 167.637 85.984V92.256ZM188.03 92H180.35V25.696H188.03V38.112H188.286C190.419 32.8213 193.15 29.152 196.478 27.104C199.891 24.9707 204.371 23.904 209.918 23.904V32.224C205.566 32.1387 201.982 32.8213 199.166 34.272C196.35 35.7227 194.089 37.6853 192.382 40.16C190.761 42.6347 189.609 45.5787 188.926 48.992C188.329 52.32 188.03 55.8187 188.03 59.488V92ZM265.983 57.184C262.74 58.5493 259.455 59.4453 256.127 59.872C252.799 60.2987 249.471 60.64 246.143 60.896C240.255 61.3227 235.647 62.6453 232.319 64.864C229.076 67.0827 227.455 70.4533 227.455 74.976C227.455 77.024 227.839 78.816 228.607 80.352C229.46 81.8027 230.527 83.04 231.807 84.064C233.172 85.0027 234.708 85.728 236.415 86.24C238.207 86.6667 239.999 86.88 241.791 86.88C244.863 86.88 247.85 86.496 250.751 85.728C253.652 84.96 256.212 83.808 258.431 82.272C260.735 80.6507 262.57 78.6453 263.935 76.256C265.3 73.7813 265.983 70.88 265.983 67.552V57.184ZM253.055 53.344C254.506 53.1733 256.212 52.9173 258.175 52.576C260.223 52.2347 261.887 51.7653 263.167 51.168C264.447 50.5707 265.215 49.5893 265.471 48.224C265.812 46.7733 265.983 45.4507 265.983 44.256C265.983 40.3307 264.703 37.1307 262.143 34.656C259.668 32.096 255.444 30.816 249.471 30.816C246.826 30.816 244.394 31.072 242.175 31.584C239.956 32.0107 237.994 32.8213 236.287 34.016C234.666 35.1253 233.3 36.6613 232.191 38.624C231.167 40.5013 230.484 42.8907 230.143 45.792H222.335C222.591 41.8667 223.487 38.5387 225.023 35.808C226.559 32.992 228.522 30.7307 230.911 29.024C233.386 27.232 236.202 25.952 239.359 25.184C242.602 24.3307 246.015 23.904 249.599 23.904C252.927 23.904 256.042 24.288 258.943 25.056C261.93 25.7387 264.49 26.8907 266.623 28.512C268.842 30.048 270.548 32.1387 271.743 34.784C273.023 37.4293 273.663 40.672 273.663 44.512V80.608C273.663 83.5947 274.175 85.5147 275.199 86.368C276.308 87.136 278.484 86.9227 281.727 85.728V91.744C281.13 91.9147 280.234 92.1707 279.039 92.512C277.93 92.8533 276.82 93.024 275.711 93.024C274.516 93.024 273.364 92.896 272.255 92.64C270.975 92.4693 269.951 92.0853 269.183 91.488C268.415 90.8053 267.775 90.0373 267.263 89.184C266.836 88.2453 266.538 87.264 266.367 86.24C266.196 85.1307 266.111 83.9787 266.111 82.784C262.868 86.368 259.156 89.0987 254.975 90.976C250.794 92.8533 246.271 93.792 241.407 93.792C238.506 93.792 235.69 93.408 232.959 92.64C230.314 91.872 227.967 90.6773 225.919 89.056C223.871 87.4347 222.25 85.472 221.055 83.168C219.86 80.7787 219.263 77.9627 219.263 74.72C219.263 63.456 226.986 56.8 242.431 54.752L253.055 53.344ZM317.012 92.256C316.073 92.4267 314.836 92.7253 313.3 93.152C311.764 93.5787 310.057 93.792 308.18 93.792C304.34 93.792 301.396 92.8533 299.348 90.976C297.385 89.0133 296.404 85.5573 296.404 80.608V32.096H287.06V25.696H296.404V7.26399H304.084V25.696H316.5V32.096H304.084V77.536C304.084 79.1573 304.127 80.5653 304.212 81.76C304.297 82.9547 304.553 83.936 304.98 84.704C305.407 85.472 306.047 86.0267 306.9 86.368C307.839 86.7093 309.119 86.88 310.74 86.88C311.764 86.88 312.788 86.7947 313.812 86.624C314.921 86.4533 315.988 86.24 317.012 85.984V92.256ZM352.637 92.256C351.698 92.4267 350.461 92.7253 348.925 93.152C347.389 93.5787 345.682 93.792 343.805 93.792C339.965 93.792 337.021 92.8533 334.973 90.976C333.01 89.0133 332.029 85.5573 332.029 80.608V32.096H322.685V25.696H332.029V7.26399H339.709V25.696H352.125V32.096H339.709V77.536C339.709 79.1573 339.752 80.5653 339.837 81.76C339.922 82.9547 340.178 83.936 340.605 84.704C341.032 85.472 341.672 86.0267 342.525 86.368C343.464 86.7093 344.744 86.88 346.365 86.88C347.389 86.88 348.413 86.7947 349.437 86.624C350.546 86.4533 351.613 86.24 352.637 85.984V92.256ZM391.334 93.792C387.067 93.7067 383.057 92.9387 379.302 91.488C375.633 90.0373 372.39 87.8613 369.574 84.96C366.843 82.0587 364.667 78.432 363.046 74.08C361.425 69.728 360.614 64.6507 360.614 58.848C360.614 53.984 361.254 49.4613 362.534 45.28C363.814 41.0133 365.734 37.3013 368.294 34.144C370.854 30.9867 374.054 28.512 377.894 26.72C381.734 24.8427 386.214 23.904 391.334 23.904C396.539 23.904 401.062 24.8427 404.902 26.72C408.742 28.512 411.942 30.9867 414.502 34.144C417.062 37.216 418.939 40.8853 420.134 45.152C421.414 49.4187 422.054 53.984 422.054 58.848C422.054 64.1387 421.329 68.9173 419.878 73.184C418.427 77.4507 416.337 81.12 413.606 84.192C410.961 87.264 407.718 89.6533 403.878 91.36C400.123 92.9813 395.942 93.792 391.334 93.792ZM413.862 58.848C413.862 54.9227 413.435 51.2533 412.582 47.84C411.729 44.4267 410.406 41.4827 408.614 39.008C406.822 36.448 404.518 34.4427 401.702 32.992C398.886 31.5413 395.43 30.816 391.334 30.816C387.323 30.816 383.867 31.6267 380.966 33.248C378.15 34.784 375.846 36.8747 374.054 39.52C372.262 42.08 370.939 45.0667 370.086 48.48C369.233 51.808 368.806 55.264 368.806 58.848C368.806 62.944 369.275 66.7413 370.214 70.24C371.238 73.6533 372.689 76.5973 374.566 79.072C376.443 81.5467 378.79 83.4667 381.606 84.832C384.422 86.1973 387.665 86.88 391.334 86.88C395.345 86.88 398.758 86.112 401.574 84.576C404.475 82.9547 406.822 80.8213 408.614 78.176C410.406 75.5307 411.729 72.544 412.582 69.216C413.435 65.888 413.862 62.432 413.862 58.848Z" fill="#131313"/>
<path d="M459.688 25.0625L450.25 69.5C449.542 72.9167 449.5 75.7083 450.125 77.875C451.25 81.875 454.542 83.875 460 83.875C467.833 83.875 473.917 80.375 478.25 73.375C480.583 69.625 482.438 64.4792 483.812 57.9375L490.812 25.0625H502.062L487.875 92H477.25L479.438 82.125C477.438 84.6667 475.167 86.8125 472.625 88.5625C467.583 92.0625 462 93.8125 455.875 93.8125C446.333 93.8125 440.521 90.625 438.438 84.25C437.271 80.8333 437.292 76.2708 438.5 70.5625L448.188 25.0625H459.688ZM519.625 25.375H531.062L516.938 92H505.5L519.625 25.375ZM525 0.1875H536.438L533.688 12.9375H522.25L525 0.1875Z" fill="#1E87F0"/>
</svg>
