<svg width="24" height="24" viewBox="0 0 24 24" fill="none" xmlns="http://www.w3.org/2000/svg">
<path d="M21 10H3M16 2V6M8 2V6M7.8 22H16.2C17.8802 22 18.7202 22 19.362 21.673C19.9265 21.3854 20.3854 20.9265 20.673 20.362C21 19.7202 21 18.8802 21 17.2V8.8C21 7.11984 21 6.27976 20.673 5.63803C20.3854 5.07354 19.9265 4.6146 19.362 4.32698C18.7202 4 17.8802 4 16.2 4H7.8C6.11984 4 5.27976 4 4.63803 4.32698C4.07354 4.6146 3.6146 5.07354 3.32698 5.63803C3 6.27976 3 7.11984 3 8.8V17.2C3 18.8802 3 19.7202 3.32698 20.362C3.6146 20.9265 4.07354 21.3854 4.63803 21.673C5.27976 22 6.11984 22 7.8 22Z" stroke="black" stroke-width="1.5" stroke-linecap="round" stroke-linejoin="round"/>
<path d="M8 13.5C8 13.7761 7.77614 14 7.5 14C7.22386 14 7 13.7761 7 13.5C7 13.2239 7.22386 13 7.5 13C7.77614 13 8 13.2239 8 13.5Z" fill="black"/>
<path fill-rule="evenodd" clip-rule="evenodd" d="M7.5 13.75C7.63807 13.75 7.75 13.6381 7.75 13.5C7.75 13.3619 7.63807 13.25 7.5 13.25C7.36193 13.25 7.25 13.3619 7.25 13.5C7.25 13.6381 7.36193 13.75 7.5 13.75ZM6.25 13.5C6.25 12.8096 6.80964 12.25 7.5 12.25C8.19036 12.25 8.75 12.8096 8.75 13.5C8.75 14.1904 8.19036 14.75 7.5 14.75C6.80964 14.75 6.25 14.1904 6.25 13.5Z" fill="black"/>
<path d="M11 13.5C11 13.7761 10.7761 14 10.5 14C10.2239 14 10 13.7761 10 13.5C10 13.2239 10.2239 13 10.5 13C10.7761 13 11 13.2239 11 13.5Z" fill="black"/>
<path fill-rule="evenodd" clip-rule="evenodd" d="M10.5 13.75C10.6381 13.75 10.75 13.6381 10.75 13.5C10.75 13.3619 10.6381 13.25 10.5 13.25C10.3619 13.25 10.25 13.3619 10.25 13.5C10.25 13.6381 10.3619 13.75 10.5 13.75ZM9.25 13.5C9.25 12.8096 9.80964 12.25 10.5 12.25C11.1904 12.25 11.75 12.8096 11.75 13.5C11.75 14.1904 11.1904 14.75 10.5 14.75C9.80964 14.75 9.25 14.1904 9.25 13.5Z" fill="black"/>
<path d="M14 13.5C14 13.7761 13.7761 14 13.5 14C13.2239 14 13 13.7761 13 13.5C13 13.2239 13.2239 13 13.5 13C13.7761 13 14 13.2239 14 13.5Z" fill="black"/>
<path fill-rule="evenodd" clip-rule="evenodd" d="M13.5 13.75C13.6381 13.75 13.75 13.6381 13.75 13.5C13.75 13.3619 13.6381 13.25 13.5 13.25C13.3619 13.25 13.25 13.3619 13.25 13.5C13.25 13.6381 13.3619 13.75 13.5 13.75ZM12.25 13.5C12.25 12.8096 12.8096 12.25 13.5 12.25C14.1904 12.25 14.75 12.8096 14.75 13.5C14.75 14.1904 14.1904 14.75 13.5 14.75C12.8096 14.75 12.25 14.1904 12.25 13.5Z" fill="black"/>
<path d="M17 13.5C17 13.7761 16.7761 14 16.5 14C16.2239 14 16 13.7761 16 13.5C16 13.2239 16.2239 13 16.5 13C16.7761 13 17 13.2239 17 13.5Z" fill="black"/>
<path fill-rule="evenodd" clip-rule="evenodd" d="M16.5 13.75C16.6381 13.75 16.75 13.6381 16.75 13.5C16.75 13.3619 16.6381 13.25 16.5 13.25C16.3619 13.25 16.25 13.3619 16.25 13.5C16.25 13.6381 16.3619 13.75 16.5 13.75ZM15.25 13.5C15.25 12.8096 15.8096 12.25 16.5 12.25C17.1904 12.25 17.75 12.8096 17.75 13.5C17.75 14.1904 17.1904 14.75 16.5 14.75C15.8096 14.75 15.25 14.1904 15.25 13.5Z" fill="black"/>
<path d="M8 17.5C8 17.7761 7.77614 18 7.5 18C7.22386 18 7 17.7761 7 17.5C7 17.2239 7.22386 17 7.5 17C7.77614 17 8 17.2239 8 17.5Z" fill="black"/>
<path fill-rule="evenodd" clip-rule="evenodd" d="M7.5 17.75C7.63807 17.75 7.75 17.6381 7.75 17.5C7.75 17.3619 7.63807 17.25 7.5 17.25C7.36193 17.25 7.25 17.3619 7.25 17.5C7.25 17.6381 7.36193 17.75 7.5 17.75ZM6.25 17.5C6.25 16.8096 6.80964 16.25 7.5 16.25C8.19036 16.25 8.75 16.8096 8.75 17.5C8.75 18.1904 8.19036 18.75 7.5 18.75C6.80964 18.75 6.25 18.1904 6.25 17.5Z" fill="black"/>
<path d="M11 17.5C11 17.7761 10.7761 18 10.5 18C10.2239 18 10 17.7761 10 17.5C10 17.2239 10.2239 17 10.5 17C10.7761 17 11 17.2239 11 17.5Z" fill="black"/>
<path fill-rule="evenodd" clip-rule="evenodd" d="M10.5 17.75C10.6381 17.75 10.75 17.6381 10.75 17.5C10.75 17.3619 10.6381 17.25 10.5 17.25C10.3619 17.25 10.25 17.3619 10.25 17.5C10.25 17.6381 10.3619 17.75 10.5 17.75ZM9.25 17.5C9.25 16.8096 9.80964 16.25 10.5 16.25C11.1904 16.25 11.75 16.8096 11.75 17.5C11.75 18.1904 11.1904 18.75 10.5 18.75C9.80964 18.75 9.25 18.1904 9.25 17.5Z" fill="black"/>
<path d="M14 17.5C14 17.7761 13.7761 18 13.5 18C13.2239 18 13 17.7761 13 17.5C13 17.2239 13.2239 17 13.5 17C13.7761 17 14 17.2239 14 17.5Z" fill="black"/>
<path fill-rule="evenodd" clip-rule="evenodd" d="M13.5 17.75C13.6381 17.75 13.75 17.6381 13.75 17.5C13.75 17.3619 13.6381 17.25 13.5 17.25C13.3619 17.25 13.25 17.3619 13.25 17.5C13.25 17.6381 13.3619 17.75 13.5 17.75ZM12.25 17.5C12.25 16.8096 12.8096 16.25 13.5 16.25C14.1904 16.25 14.75 16.8096 14.75 17.5C14.75 18.1904 14.1904 18.75 13.5 18.75C12.8096 18.75 12.25 18.1904 12.25 17.5Z" fill="black"/>
</svg>
