<svg width="24" height="24" viewBox="0 0 24 24" fill="none" xmlns="http://www.w3.org/2000/svg">
<path d="M19.9912 4.49315C18.46 3.79043 16.8442 3.28889 15.1842 3.00103C15.1692 2.99849 15.1537 3.00068 15.14 3.00729C15.1263 3.01389 15.1149 3.0246 15.1075 3.03792C14.8994 3.4069 14.6691 3.88951 14.5083 4.26734C12.7189 3.99579 10.8988 3.99579 9.10946 4.26734C8.93 3.84645 8.72699 3.43599 8.50139 3.03792C8.49382 3.02474 8.48243 3.01416 8.46873 3.00758C8.45504 3.00099 8.43966 2.99871 8.42464 3.00103C6.76426 3.28735 5.14816 3.78915 3.61766 4.49315C3.60456 4.49815 3.59361 4.50754 3.58667 4.51972C0.525667 9.09351 -0.314116 13.5551 0.0976582 17.9607C0.0991341 17.9813 0.112417 18.002 0.128652 18.0153C1.91112 19.3356 3.90486 20.3437 6.02484 20.9966C6.03981 21.0013 6.05589 21.0011 6.07076 20.9961C6.08562 20.991 6.09849 20.9814 6.10749 20.9685C6.56207 20.3487 6.96646 19.6948 7.31477 19.0071C7.32203 18.9929 7.32452 18.9768 7.32186 18.9611C7.3192 18.9454 7.31153 18.931 7.30001 18.92C7.29239 18.9128 7.28334 18.9073 7.27345 18.9038C6.63757 18.6594 6.02173 18.3658 5.43153 18.0256C5.41505 18.0163 5.40279 18.0009 5.39729 17.9828C5.3918 17.9647 5.39349 17.9451 5.40202 17.9282C5.40704 17.9172 5.41463 17.9076 5.42415 17.9002C5.54813 17.8072 5.6721 17.7098 5.79017 17.6124C5.80061 17.604 5.81312 17.5986 5.82638 17.5968C5.83964 17.5949 5.85314 17.5968 5.86545 17.602C9.73081 19.3672 13.915 19.3672 17.7331 17.602C17.7458 17.5965 17.7599 17.5946 17.7736 17.5964C17.7874 17.5982 17.8004 17.6037 17.8113 17.6124C17.9294 17.7098 18.0534 17.8072 18.1773 17.9002C18.1874 17.9075 18.1955 17.9172 18.2008 17.9284C18.2062 17.9397 18.2087 17.952 18.2081 17.9645C18.2075 17.9769 18.2039 17.989 18.1975 17.9997C18.1911 18.0103 18.1821 18.0192 18.1714 18.0256C17.5826 18.3689 16.966 18.6621 16.328 18.9023C16.3179 18.906 16.3086 18.9118 16.301 18.9195C16.2933 18.9271 16.2875 18.9364 16.2838 18.9466C16.2804 18.9564 16.279 18.9669 16.2797 18.9773C16.2805 18.9877 16.2834 18.9978 16.2882 19.0071C16.6424 19.6934 17.0483 20.3487 17.494 20.9685C17.503 20.9814 17.5159 20.991 17.5307 20.9961C17.5456 21.0011 17.5617 21.0013 17.5767 20.9966C19.7002 20.3458 21.6972 19.3375 23.4817 18.0153C23.4906 18.0091 23.4981 18.001 23.5034 17.9915C23.5088 17.9821 23.512 17.9715 23.5127 17.9607C24.0056 12.8674 22.6877 8.44264 20.0207 4.52119C20.018 4.51472 20.014 4.50888 20.0089 4.50405C20.0039 4.49922 19.9978 4.4955 19.9912 4.49315ZM7.89185 15.2775C6.72737 15.2775 5.76951 14.209 5.76951 12.8984C5.76951 11.5863 6.70966 10.5177 7.89185 10.5177C9.08289 10.5177 10.0319 11.5951 10.0142 12.8984C10.0142 14.209 9.07404 15.2775 7.89185 15.2775ZM15.7377 15.2775C14.5747 15.2775 13.6154 14.209 13.6154 12.8984C13.6154 11.5863 14.5555 10.5177 15.7377 10.5177C16.9287 10.5177 17.8792 11.5951 17.86 12.8984C17.86 14.209 16.9287 15.2775 15.7377 15.2775Z" fill="black"/>
</svg>
