<svg width="24" height="24" viewBox="0 0 24 24" fill="none" xmlns="http://www.w3.org/2000/svg">
<path d="M12 3C9.55762 3 9.2505 3.01125 8.29088 3.054C7.33125 3.099 6.67762 3.24975 6.105 3.4725C5.50436 3.69842 4.9603 4.0528 4.51088 4.51088C4.05309 4.96053 3.69875 5.50452 3.4725 6.105C3.24975 6.6765 3.09788 7.33125 3.054 8.2875C3.01125 9.24937 3 9.55538 3 12.0011C3 14.4446 3.01125 14.7506 3.054 15.7103C3.099 16.6688 3.24975 17.3224 3.4725 17.895C3.70312 18.4867 4.01025 18.9885 4.51088 19.4891C5.01038 19.9897 5.51213 20.298 6.10388 20.5275C6.67763 20.7502 7.33013 20.9021 8.28863 20.946C9.24938 20.9887 9.55537 21 12 21C14.4446 21 14.7495 20.9887 15.7103 20.946C16.6676 20.901 17.3235 20.7502 17.8961 20.5275C18.4964 20.3015 19.04 19.9471 19.4891 19.4891C19.9897 18.9885 20.2969 18.4867 20.5275 17.895C20.7491 17.3224 20.901 16.6688 20.946 15.7103C20.9887 14.7506 21 14.4446 21 12C21 9.55537 20.9887 9.24938 20.946 8.28863C20.901 7.33125 20.7491 6.6765 20.5275 6.105C20.3013 5.5045 19.9469 4.96051 19.4891 4.51088C19.0398 4.05264 18.4957 3.69823 17.895 3.4725C17.3212 3.24975 16.6665 3.09788 15.7091 3.054C14.7484 3.01125 14.4435 3 11.9978 3H12.0011H12ZM11.1934 4.62225H12.0011C14.4041 4.62225 14.6887 4.63013 15.6371 4.674C16.5146 4.71338 16.9916 4.86075 17.3089 4.98338C17.7285 5.1465 18.0289 5.34225 18.3439 5.65725C18.6589 5.97225 18.8535 6.2715 19.0166 6.69225C19.1404 7.00838 19.2866 7.48538 19.326 8.36288C19.3699 9.31125 19.3789 9.59588 19.3789 11.9978C19.3789 14.3996 19.3699 14.6854 19.326 15.6337C19.2866 16.5112 19.1393 16.9871 19.0166 17.3044C18.8723 17.6952 18.642 18.0485 18.3427 18.3382C18.0277 18.6532 17.7285 18.8479 17.3078 19.011C16.9928 19.1348 16.5157 19.281 15.6371 19.3215C14.6887 19.3643 14.4041 19.3744 12.0011 19.3744C9.59813 19.3744 9.31238 19.3643 8.364 19.3215C7.4865 19.281 7.01062 19.1348 6.69337 19.011C6.30244 18.8669 5.94877 18.637 5.65837 18.3382C5.35884 18.048 5.12819 17.6944 4.98338 17.3032C4.86075 16.9871 4.71338 16.5101 4.674 15.6326C4.63125 14.6843 4.62225 14.3996 4.62225 11.9955C4.62225 9.5925 4.63125 9.309 4.674 8.36062C4.7145 7.48312 4.86075 7.00613 4.9845 6.68888C5.14763 6.26925 5.34337 5.96887 5.65837 5.65387C5.97337 5.33887 6.27262 5.14425 6.69337 4.98113C7.01062 4.85738 7.4865 4.71113 8.364 4.67063C9.19425 4.63238 9.516 4.62113 11.1934 4.62V4.62225ZM16.8049 6.11625C16.663 6.11625 16.5226 6.14419 16.3916 6.19846C16.2605 6.25274 16.1415 6.33229 16.0412 6.43257C15.9409 6.53286 15.8614 6.65192 15.8071 6.78295C15.7528 6.91398 15.7249 7.05442 15.7249 7.19625C15.7249 7.33808 15.7528 7.47852 15.8071 7.60955C15.8614 7.74058 15.9409 7.85964 16.0412 7.95993C16.1415 8.06021 16.2605 8.13976 16.3916 8.19404C16.5226 8.24831 16.663 8.27625 16.8049 8.27625C17.0913 8.27625 17.366 8.16246 17.5686 7.95993C17.7711 7.75739 17.8849 7.48268 17.8849 7.19625C17.8849 6.90982 17.7711 6.63511 17.5686 6.43257C17.366 6.23004 17.0913 6.11625 16.8049 6.11625ZM12.0011 7.3785C11.3881 7.36894 10.7793 7.48142 10.2101 7.70941C9.64094 7.9374 9.12283 8.27633 8.68592 8.70648C8.24901 9.13662 7.90203 9.64939 7.6652 10.2149C7.42836 10.7804 7.30639 11.3874 7.30639 12.0006C7.30639 12.6137 7.42836 13.2207 7.6652 13.7862C7.90203 14.3517 8.24901 14.8645 8.68592 15.2946C9.12283 15.7248 9.64094 16.0637 10.2101 16.2917C10.7793 16.5197 11.3881 16.6322 12.0011 16.6226C13.2145 16.6037 14.3717 16.1084 15.2231 15.2437C16.0745 14.3789 16.5516 13.2141 16.5516 12.0006C16.5516 10.7871 16.0745 9.62221 15.2231 8.75747C14.3717 7.89272 13.2145 7.39743 12.0011 7.3785ZM12.0011 8.99963C12.7969 8.99963 13.56 9.31574 14.1227 9.87841C14.6854 10.4411 15.0015 11.2043 15.0015 12C15.0015 12.7957 14.6854 13.5589 14.1227 14.1216C13.56 14.6843 12.7969 15.0004 12.0011 15.0004C11.2054 15.0004 10.4422 14.6843 9.87954 14.1216C9.31686 13.5589 9.00075 12.7957 9.00075 12C9.00075 11.2043 9.31686 10.4411 9.87954 9.87841C10.4422 9.31574 11.2054 8.99963 12.0011 8.99963Z" fill="black"/>
</svg>
