<svg width="24" height="24" viewBox="0 0 24 24" fill="none" xmlns="http://www.w3.org/2000/svg">
<path d="M18 17C18 17.3513 18 17.527 17.9843 17.6797C17.8543 18.9474 16.9374 19.9946 15.6979 20.2911C15.5487 20.3268 15.3745 20.3501 15.0263 20.3965L8.43439 21.2754C6.55795 21.5256 5.61973 21.6507 4.89155 21.3612C4.25223 21.107 3.71971 20.6407 3.38324 20.0406C3 19.3571 3 18.4106 3 16.5175V7.48248C3 5.58944 3 4.64292 3.38324 3.95939C3.71971 3.35927 4.25223 2.89304 4.89155 2.63884C5.61973 2.3493 6.55795 2.47439 8.43439 2.72458L15.0263 3.60351C15.3745 3.64994 15.5486 3.67315 15.6979 3.70886C16.9374 4.00536 17.8543 5.05257 17.9843 6.32034C18 6.47304 18 6.6487 18 7M12 8L8 12M8 12L12 16M8 12H21" stroke="black" stroke-width="2" stroke-linecap="round" stroke-linejoin="round"/>
</svg>
