<svg width="24" height="24" viewBox="0 0 24 24" fill="none" xmlns="http://www.w3.org/2000/svg">
<path d="M8.37671 15.6164L2.71986 21.2732M11.6944 6.64188L10.1335 8.20276C10.0062 8.33009 9.94252 8.39375 9.86999 8.44433C9.80561 8.48923 9.73617 8.5264 9.6631 8.55506C9.58078 8.58735 9.49249 8.60501 9.31593 8.64032L5.65146 9.37321C4.69916 9.56367 4.22301 9.6589 4.00025 9.90996C3.80618 10.1287 3.71756 10.4214 3.75771 10.711C3.8038 11.0434 4.14716 11.3868 4.83388 12.0735L11.9196 19.1593C12.6063 19.846 12.9497 20.1893 13.2821 20.2354C13.5718 20.2756 13.8645 20.1869 14.0832 19.9929C14.3342 19.7701 14.4295 19.294 14.6199 18.3417L15.3528 14.6772C15.3881 14.5006 15.4058 14.4124 15.4381 14.33C15.4667 14.257 15.5039 14.1875 15.5488 14.1231C15.5994 14.0506 15.663 13.9869 15.7904 13.8596L17.3513 12.2987C17.4327 12.2173 17.4734 12.1766 17.5181 12.1411C17.5578 12.1095 17.5999 12.081 17.644 12.0558C17.6936 12.0275 17.7465 12.0048 17.8524 11.9595L20.3467 10.8905C21.0744 10.5786 21.4383 10.4227 21.6035 10.1707C21.7481 9.95031 21.7998 9.68181 21.7474 9.42354C21.6875 9.12819 21.4076 8.84828 20.8478 8.28846L15.7047 3.14532C15.1448 2.58549 14.8649 2.30558 14.5696 2.24571C14.3113 2.19335 14.0428 2.24506 13.8225 2.38959C13.5705 2.55487 13.4145 2.91872 13.1027 3.64642L12.0337 6.14078C11.9883 6.24659 11.9656 6.2995 11.9373 6.34911C11.9121 6.39319 11.8836 6.43528 11.852 6.47503C11.8165 6.51977 11.7758 6.56047 11.6944 6.64188Z" stroke="black" stroke-width="1.5" stroke-linecap="round" stroke-linejoin="round"/>
</svg>
