<svg width="24" height="24" viewBox="0 0 24 24" fill="none" xmlns="http://www.w3.org/2000/svg">
<path d="M8.3767 15.6163L2.71985 21.2732M11.6944 6.64185L10.1335 8.20273C10.0062 8.33006 9.94252 8.39372 9.86999 8.4443C9.80561 8.4892 9.73616 8.52637 9.66309 8.55503C9.58077 8.58732 9.49249 8.60498 9.31592 8.64029L5.65145 9.37318C4.69915 9.56364 4.223 9.65887 4.00024 9.90993C3.80617 10.1286 3.71755 10.4213 3.75771 10.711C3.8038 11.0434 4.14715 11.3868 4.83387 12.0735L11.9196 19.1592C12.6063 19.8459 12.9497 20.1893 13.2821 20.2354C13.5718 20.2755 13.8645 20.1869 14.0832 19.9929C14.3342 19.7701 14.4294 19.2939 14.6199 18.3416L15.3528 14.6772C15.3881 14.5006 15.4058 14.4123 15.4381 14.33C15.4667 14.2569 15.5039 14.1875 15.5488 14.1231C15.5994 14.0506 15.663 13.9869 15.7904 13.8596L17.3512 12.2987C17.4326 12.2173 17.4734 12.1766 17.5181 12.1411C17.5578 12.1095 17.5999 12.081 17.644 12.0558C17.6936 12.0275 17.7465 12.0048 17.8523 11.9594L20.3467 10.8904C21.0744 10.5786 21.4383 10.4226 21.6035 10.1706C21.7481 9.95028 21.7998 9.68178 21.7474 9.42351C21.6875 9.12816 21.4076 8.84825 20.8478 8.28842L15.7047 3.14529C15.1448 2.58546 14.8649 2.30555 14.5696 2.24568C14.3113 2.19332 14.0428 2.24503 13.8225 2.38956C13.5705 2.55484 13.4145 2.91869 13.1027 3.64639L12.0337 6.14075C11.9883 6.24656 11.9656 6.29947 11.9373 6.34908C11.9121 6.39316 11.8836 6.43525 11.852 6.47499C11.8165 6.51974 11.7758 6.56044 11.6944 6.64185Z" stroke="black" stroke-width="2" stroke-linecap="round" stroke-linejoin="round"/>
</svg>
