<svg width="24" height="24" viewBox="0 0 24 24" fill="none" xmlns="http://www.w3.org/2000/svg">
<path d="M17.7448 2.8128C18.7095 1.81632 20.3036 1.80343 21.2843 2.78418C22.2382 3.73805 22.256 5.27902 21.3243 6.25463L18.5457 9.16439C18.3279 9.39246 18.219 9.5065 18.1519 9.64006C18.0925 9.75829 18.0571 9.88714 18.0479 10.0191C18.0374 10.1682 18.0729 10.3219 18.1438 10.6292L19.8717 18.1167C19.9445 18.4321 19.9809 18.5898 19.9691 18.7424C19.9587 18.8774 19.921 19.0089 19.8582 19.1289C19.7874 19.2645 19.6729 19.379 19.444 19.6079L19.0732 19.9786C18.4671 20.5848 18.164 20.8878 17.8538 20.9427C17.583 20.9906 17.3043 20.9248 17.0835 20.7609C16.8306 20.5731 16.6951 20.1665 16.424 19.3532L14.4142 13.3239L11.0689 16.6693C10.8692 16.869 10.7694 16.9688 10.7026 17.0864C10.6434 17.1905 10.6034 17.3045 10.5846 17.4228C10.5633 17.5563 10.5789 17.6967 10.6101 17.9773L10.7938 19.6307C10.8249 19.9114 10.8405 20.0517 10.8192 20.1853C10.8004 20.3036 10.7604 20.4175 10.7012 20.5217C10.6345 20.6393 10.5346 20.7391 10.3349 20.9388L10.1374 21.1363C9.66436 21.6093 9.42783 21.8459 9.16498 21.9144C8.93443 21.9745 8.69001 21.9503 8.47572 21.8461C8.23141 21.7274 8.04586 21.4491 7.67476 20.8924L6.10644 18.54C6.04014 18.4405 6.00699 18.3908 5.96851 18.3457C5.93432 18.3056 5.89702 18.2683 5.85696 18.2341C5.81186 18.1956 5.76213 18.1625 5.66268 18.0962L3.3102 16.5279C2.75355 16.1568 2.47523 15.9712 2.35651 15.7269C2.25238 15.5126 2.22818 15.2682 2.28826 15.0377C2.35676 14.7748 2.59329 14.5383 3.06635 14.0652L3.26385 13.8677C3.46354 13.668 3.56338 13.5682 3.68096 13.5014C3.78512 13.4422 3.89907 13.4023 4.01737 13.3834C4.15091 13.3621 4.29124 13.3777 4.57192 13.4089L6.2253 13.5926C6.50597 13.6238 6.64631 13.6394 6.77985 13.6181C6.89815 13.5992 7.01209 13.5592 7.11626 13.5001C7.23383 13.4333 7.33368 13.3334 7.53336 13.1337L10.8787 9.78841L4.84941 7.77865C4.03618 7.50758 3.62957 7.37204 3.44177 7.11913C3.27779 6.89829 3.21201 6.61966 3.25992 6.3488C3.31478 6.03861 3.61786 5.73554 4.224 5.12939L4.59477 4.75862C4.82367 4.52973 4.93811 4.41528 5.07371 4.34439C5.19372 4.28164 5.32522 4.24393 5.46024 4.23353C5.6128 4.22178 5.7705 4.25818 6.08592 4.33096L13.5451 6.0523C13.855 6.12383 14.01 6.15959 14.1596 6.14895C14.3041 6.13868 14.4446 6.09715 14.5714 6.02724C14.7028 5.95482 14.8134 5.84055 15.0347 5.61202L17.7448 2.8128Z" stroke="black" stroke-width="1.5" stroke-linecap="round" stroke-linejoin="round"/>
</svg>
