<svg width="24" height="24" viewBox="0 0 24 24" fill="none" xmlns="http://www.w3.org/2000/svg">
<path d="M18.3011 5.6168C17.4759 4.78394 16.4931 4.12364 15.4102 3.67438C14.3272 3.22513 13.1657 2.9959 11.9932 3.00006C7.08036 3.00006 3.0765 7.00279 3.072 11.9168C3.072 13.4906 3.48375 15.0218 4.26112 16.3774L3 21L7.72949 19.7603C9.03786 20.4723 10.5036 20.8455 11.9932 20.8459H11.9977C16.9117 20.8459 20.9144 16.8431 20.9189 11.9247C20.9201 10.7525 20.6892 9.59162 20.2398 8.50903C19.7903 7.42643 19.1321 6.44348 18.3011 5.6168ZM11.9932 19.3361C10.6646 19.3366 9.3604 18.979 8.21773 18.3011L7.94773 18.1391L5.14199 18.8749L5.89124 16.1378L5.71574 15.8554C4.97303 14.6745 4.58022 13.3073 4.58287 11.9123C4.58287 7.83304 7.90949 4.5053 11.9977 4.5053C12.9717 4.50355 13.9363 4.69461 14.8361 5.06745C15.7359 5.4403 16.5529 5.98755 17.2402 6.67767C17.9299 7.3651 18.4766 8.18227 18.8489 9.08205C19.2211 9.98183 19.4116 10.9464 19.4092 11.9202C19.4047 16.014 16.0781 19.3361 11.9932 19.3361ZM16.0601 13.7854C15.8385 13.674 14.7438 13.1351 14.538 13.0586C14.3332 12.9855 14.1836 12.9473 14.0373 13.17C13.8877 13.3916 13.4602 13.8968 13.332 14.0419C13.2037 14.1915 13.071 14.2084 12.8482 14.0981C12.6266 13.9856 11.9077 13.7516 11.0572 12.99C10.3935 12.3994 9.9491 11.6682 9.81635 11.4465C9.6881 11.2238 9.80398 11.1045 9.91535 10.9932C10.0132 10.8942 10.137 10.7322 10.2484 10.6039C10.3609 10.4757 10.398 10.3812 10.4711 10.2327C10.5442 10.0819 10.5094 9.95366 10.4542 9.84228C10.398 9.73091 9.9536 8.63179 9.76573 8.18854C9.58573 7.75092 9.40236 7.81167 9.26511 7.80604C9.13686 7.79817 8.98723 7.79817 8.83761 7.79817C8.72462 7.80097 8.61343 7.82711 8.51101 7.87493C8.4086 7.92274 8.31718 7.99121 8.24248 8.07604C8.03773 8.29879 7.46511 8.83766 7.46511 9.93678C7.46511 11.0359 8.26386 12.0923 8.37636 12.2419C8.48661 12.3915 9.9446 14.6404 12.1822 15.6079C12.711 15.8385 13.1272 15.9746 13.4523 16.0781C13.9867 16.2491 14.4693 16.2233 14.8541 16.1681C15.2816 16.1029 16.1715 15.6281 16.3593 15.1073C16.5438 14.5853 16.5438 14.1398 16.4876 14.0464C16.4325 13.9519 16.2828 13.8968 16.0601 13.7854Z" fill="black"/>
</svg>
